# xmcd
#
# Track frame offsets: 
#        150
#        13775
#        25134
#        45048
#        59829
#        79880
#        99036
#        120909
#        133569
#        150750
#        171047
#        187340
#
# Disc length: 2639 seconds
#
# Revision: 0
# Processed by: cddbd v1.5.2PL0 Copyright (c) Steve Scherf et al.
# Submitted via: ExactAudioCopy v1.0b4
#
DISCID=870a4d0c
DTITLE=Various Artist - The Blues Vol 3 (DLP) LP 1
DYEAR=1900
DGENRE=Blues
TTITLE0=Eddie Playboy Taylor and The Blueshound - Eddie Playboy Taylor &
TTITLE0=The Blueshounds - Playboy Boogie
TTITLE1=Mickey Baker - Mickey Baker - Take A Look Inside
TTITLE2=Eddie Guitar Burns - Eddie Guitar Burns - Mississippi Country 
TTITLE2=Farm
TTITLE3=Washboard Willie - Washboard Willie - Kansas City
TTITLE4=Homesick James - Homesick James - Shake Your Money Maker
TTITLE5=Doctor Ross - Doctor Ross The Harmonica Boss - Freight Train
TTITLE6=Boogie Woogie Red - Boogie Woogie Red - Red's Boogie
TTITLE7=Eddie Guitar Burns - Eddie Guitar Burns - I'm Going But I'll B
TTITLE7=e Back
TTITLE8=Johnny Mars and The Oakland Boogie - Johnny Mars and The Oakland B
TTITLE8=oogie - Rocket 88
TTITLE9=Tommy Tucker  - Tommy Tucker - Alimony
TTITLE10=Cousin Joe - Cousin Joe - Blues Legends '74
TTITLE11=Eddie Guitar Burns - Eddie Guitar Burns - Biscuit Bakin' Mama
EXTD=
EXTT0=
EXTT1=
EXTT2=
EXTT3=
EXTT4=
EXTT5=
EXTT6=
EXTT7=
EXTT8=
EXTT9=
EXTT10=
EXTT11=
PLAYORDER=
